<?xml version="1.0" encoding="UTF-8" ?>
<!DOCTYPE svg PUBLIC "-//W3C//DTD SVG 1.1//EN" "http://www.w3.org/Graphics/SVG/1.1/DTD/svg11.dtd">
<svg width="265pt" height="103pt" viewBox="0 0 265 103" version="1.1" xmlns="http://www.w3.org/2000/svg">
<g id="#fa9701ff">
<path fill="#fa9701" opacity="1.00" d=" M 199.74 0.00 L 199.77 0.00 C 201.59 4.34 203.32 8.71 205.06 13.08 C 191.25 16.86 177.43 20.63 163.62 24.41 C 162.96 22.04 162.31 19.66 161.66 17.29 C 174.34 11.50 187.09 5.85 199.74 0.00 Z" />
<path fill="#fa9701" opacity="1.00" d=" M 204.22 76.20 C 210.17 73.14 217.36 72.28 223.79 74.19 C 226.68 74.66 225.81 78.10 225.77 80.15 C 224.80 86.30 222.43 92.63 217.70 96.88 C 217.11 97.13 215.92 97.61 215.32 97.86 C 216.78 92.25 219.84 86.93 219.82 81.02 C 219.89 79.49 218.18 79.12 217.06 78.74 C 211.85 77.89 206.61 79.00 201.43 79.42 C 201.23 77.65 202.99 76.91 204.22 76.20 Z" />
<path fill="#fa9701" opacity="1.00" d=" M 95.96 76.03 C 97.15 76.09 98.29 76.33 99.38 76.76 C 132.45 96.01 174.62 99.02 209.86 83.88 C 211.58 82.63 215.76 82.82 214.35 85.89 C 204.26 93.99 191.75 98.67 179.17 101.20 C 150.14 107.21 118.46 98.49 96.85 78.12 C 96.63 77.60 96.18 76.56 95.96 76.03 Z" />
</g>
<g id="#ffffffff">
<path fill="#ffffff" opacity="1.00" d=" M 79.99 14.73 C 84.75 14.31 89.53 14.24 94.30 13.95 C 95.19 23.05 94.37 32.27 94.71 41.41 C 99.04 37.15 100.90 31.03 104.21 26.00 C 109.54 26.07 114.87 25.81 120.20 26.01 C 116.44 32.00 113.22 38.42 108.53 43.76 C 112.88 50.28 116.76 57.12 120.57 63.96 C 115.29 64.05 110.00 63.95 104.71 64.03 C 101.31 58.04 98.99 51.37 94.77 45.89 C 94.57 51.92 94.70 57.95 94.68 63.98 C 89.81 64.02 84.94 63.99 80.07 64.00 C 80.02 47.58 80.17 31.15 79.99 14.73 Z" />
<path fill="#ffffff" opacity="1.00" d=" M 209.37 14.66 C 214.14 14.59 218.96 13.76 223.71 14.28 C 224.23 30.82 223.78 47.43 223.93 64.00 C 219.06 63.97 214.19 64.08 209.32 63.92 C 209.37 47.50 209.28 31.08 209.37 14.66 Z" />
<path fill="#ffffff" opacity="1.00" d=" M 41.32 27.19 C 50.34 26.12 60.21 23.03 68.85 27.18 C 75.16 30.71 74.11 38.90 74.35 45.02 C 73.76 51.35 74.48 57.67 74.33 64.00 C 70.31 64.00 66.28 64.00 62.26 64.00 C 61.78 62.71 61.93 58.43 60.02 61.01 C 55.27 66.67 45.79 66.22 40.82 61.11 C 36.76 56.17 37.24 47.42 43.25 44.21 C 48.43 41.78 54.36 41.91 59.96 41.73 C 59.44 39.98 60.66 36.43 58.00 36.25 C 52.70 36.20 47.45 37.12 42.16 37.28 C 41.96 33.91 41.50 30.57 41.32 27.19 M 52.30 51.98 C 51.90 56.24 57.16 55.24 59.82 54.70 C 59.91 52.82 59.93 50.93 59.95 49.05 C 57.34 49.30 52.33 47.97 52.30 51.98 Z" />
<path fill="#ffffff" opacity="1.00" d=" M 136.53 25.60 C 143.24 24.65 150.97 24.84 156.53 29.22 C 160.81 33.17 161.58 39.46 161.36 44.98 C 161.56 51.51 159.70 59.11 153.56 62.50 C 147.54 65.63 140.30 65.56 133.80 64.27 C 127.82 63.13 123.14 58.09 122.20 52.12 C 121.26 45.23 121.26 37.80 124.25 31.38 C 126.86 27.29 132.13 26.46 136.53 25.60 M 137.54 36.40 C 136.38 41.38 136.28 46.73 137.24 51.76 C 138.15 55.85 144.78 56.12 145.81 51.97 C 146.56 46.75 147.05 41.07 144.94 36.09 C 142.74 34.97 139.25 34.07 137.54 36.40 Z" />
<path fill="#ffffff" opacity="1.00" d=" M 179.53 25.60 C 185.21 24.69 191.29 24.97 196.60 27.31 C 201.83 29.63 204.10 35.62 204.30 40.99 C 204.59 47.08 204.43 53.67 200.79 58.85 C 196.86 63.88 190.09 65.28 184.04 65.03 C 178.51 65.19 172.45 63.86 168.62 59.58 C 165.05 55.27 164.53 49.41 164.67 44.02 C 164.88 39.49 165.25 34.66 167.70 30.71 C 170.53 27.19 175.35 26.41 179.53 25.60 M 180.55 36.38 C 179.37 41.37 179.29 46.73 180.24 51.78 C 181.17 55.84 187.75 56.12 188.80 52.00 C 189.56 46.78 190.05 41.08 187.94 36.09 C 185.74 34.97 182.27 34.08 180.55 36.38 Z" />
<path fill="#ffffff" opacity="1.00" d=" M 231.32 27.19 C 238.77 26.10 246.33 24.43 253.88 25.48 C 258.15 26.02 262.36 28.75 263.47 33.12 C 264.43 37.66 264.38 42.38 264.29 47.01 C 263.71 52.67 264.59 58.33 264.33 64.00 C 260.30 64.00 256.27 64.01 252.24 63.99 C 251.94 62.59 251.64 61.20 251.33 59.81 C 247.45 64.87 240.11 66.68 234.43 63.65 C 226.75 60.62 225.89 48.09 233.26 44.20 C 238.44 41.78 244.36 41.91 249.96 41.73 C 249.50 40.03 250.41 37.46 248.76 36.37 C 243.22 35.96 237.70 37.19 232.16 37.29 C 231.96 33.91 231.50 30.57 231.32 27.19 M 242.30 51.93 C 241.86 56.23 247.15 55.24 249.81 54.71 C 249.91 52.83 249.93 50.94 249.96 49.05 C 247.35 49.31 242.38 47.96 242.30 51.93 Z" />
<path fill="#ffffff" opacity="1.00" d=" M 1.38 26.14 C 12.48 25.83 23.58 26.07 34.68 26.01 C 34.66 29.26 34.62 32.50 34.75 35.75 C 28.98 41.89 23.20 48.02 17.47 54.19 C 23.32 54.35 29.17 54.23 35.03 54.27 C 35.08 57.51 35.07 60.75 35.07 64.00 C 23.69 64.00 12.31 64.00 0.93 64.00 C 0.93 60.66 0.93 57.33 0.93 54.00 C 6.68 47.77 12.68 41.78 18.31 35.44 C 12.66 35.47 7.00 35.50 1.35 35.44 C 1.33 32.34 1.31 29.24 1.38 26.14 Z" />
</g>
</svg>
